<?xml version="1.0" encoding="UTF-8" standalone="no"?>
<!-- Created with Inkscape (http://www.inkscape.org/) -->

<svg
   width="220.004"
   height="219.12398"
   viewBox="0 0 58.209331 57.976499"
   version="1.1"
   id="svg1"
   xmlns:xlink="http://www.w3.org/1999/xlink"
   xmlns="http://www.w3.org/2000/svg"
   xmlns:svg="http://www.w3.org/2000/svg">
  <defs
     id="defs1">
    <linearGradient
       id="linearGradient2">
      <stop
         style="stop-color:#00b353;stop-opacity:1;"
         offset="0"
         id="stop2" />
      <stop
         style="stop-color:#00b353;stop-opacity:0;"
         offset="1"
         id="stop3" />
    </linearGradient>
    <clipPath
       clipPathUnits="userSpaceOnUse"
       id="clipPath6">
      <ellipse
         style="fill:url(#radialGradient8);stroke-width:0.249045"
         id="use7"
         cx="14.755975"
         cy="23.135435"
         rx="30.831795"
         ry="30.831951"
         transform="scale(1,-1)" />
    </clipPath>
    <radialGradient
       xlink:href="#linearGradient2"
       id="radialGradient8"
       gradientUnits="userSpaceOnUse"
       gradientTransform="matrix(0.93600829,0,0,0.93601306,-16.076937,-7.6977864)"
       cx="32.940853"
       cy="32.941017"
       fx="32.940853"
       fy="32.941017"
       r="32.939659" />
    <clipPath
       clipPathUnits="userSpaceOnUse"
       id="clipPath10">
      <path
         style="fill:#000000;fill-opacity:1;fill-rule:nonzero;stroke:none;stroke-width:1.068;stroke-dasharray:none;stroke-opacity:1"
         d="m 35.262859,34.496949 c -2.619629,-0.695507 -4.311921,-1.19123 -5.079011,-1.488235 -0.767089,-0.295936 -1.151698,-0.802342 -1.151698,-1.519217 0,-1.14529 0.926268,-2.270279 2.777749,-3.37604 0.54166,-0.322646 1.1485,-0.624993 1.80661,-0.911314 0.36431,1.768145 1.60576,4.476454 2.274549,5.935844 l 0.13889,0.304485 c 0.270301,0.590806 0.524571,1.079049 0.75961,1.486097 -0.501059,-0.146365 -1.004269,-0.292732 -1.526699,-0.43162 m 20.51478,-16.786176 c -1.60576,-0.449783 -3.88245,-0.675208 -6.829,-0.675208 -4.817269,0 -9.153769,0.615379 -13.023391,1.826907 l -0.0385,-0.107905 c -0.53953,-1.520286 -1.543789,-4.351457 -2.51814,-5.868538 -0.456189,-0.711532 -1.101488,-1.270288 -1.769219,-1.532038 -0.0684,-0.02671 -0.14102,-0.05876 -0.21581,-0.09188 -0.27243,-0.118589 -0.529909,-0.230767 -0.71366,-0.189101 -0.0481,0.01175 -0.114321,0.0438 -0.159189,0.133546 -0.25855,0.521363 0.689099,3.786291 1.58652,6.400584 -0.47221,-0.476491 -0.964731,-0.944436 -1.477551,-1.40597 0.161329,-1.38674 -0.5267,-2.597199 -1.196569,-3.768129 -0.499991,-0.874992 -3.070481,-5.2830731 -4.495691,-6.133493 -0.69123,-0.4123889 -1.16772,-0.5202941 -1.516007,-0.598285 -0.170939,-0.03846 -0.305553,-0.06944 -0.426279,-0.1239309 -0.186964,-0.0844 -0.455124,-0.1794852 -0.612174,-0.018161 -0.150639,0.153845 -0.110041,0.442304 0.13782,0.9625981 0.665592,1.3984921 2.23823,4.0629988 3.65381,6.2136198 -0.48717,-0.330125 -0.9861,-0.657045 -1.49785,-0.978623 -0.032,-0.06838 -0.0694,-0.141025 -0.11111,-0.221152 -0.0235,-0.0438 -0.0481,-0.08974 -0.0716,-0.136751 -0.0513,-0.101495 -0.10256,-0.227562 -0.16025,-0.373928 C 24.079141,10.412761 23.669956,9.3871293 22.188132,7.6350071 L 21.971254,7.3796689 C 20.930664,6.1457049 18.994784,3.8487171 17.548216,2.7728719 16.869803,2.267535 16.069596,1.971597 15.352722,1.961982 c -0.07372,-0.0011 -0.152776,-0.0053 -0.23504,-0.0096 -0.297006,-0.01602 -0.576918,-0.03098 -0.733968,0.07372 -0.04167,0.02778 -0.09295,0.0812 -0.102563,0.180554 -0.06731,0.6666601 2.626045,4.152741 4.494618,6.326867 C 18.516156,8.409592 18.252269,8.28673 17.988383,8.1638679 17.932823,8.020707 17.855905,7.8572471 17.73518,7.6457101 17.022579,6.4064049 15.71383,5.862606 14.447816,5.334833 13.517269,4.948084 8.7929509,3.02823 7.1423249,3.223741 6.343187,3.318821 5.8998149,3.5250201 5.5760999,3.674591 5.416913,3.748311 5.2919139,3.8070691 5.1626418,3.8369831 4.962857,3.8839929 4.6936289,3.972666 4.6669198,4.1970229 4.6412791,4.410696 4.8496099,4.613686 5.3645629,4.8743669 c 1.577978,0.801275 5.1025191,2.1880151 7.6975811,3.028819 2.175195,0.705122 3.057666,0.7745661 3.642062,0.8205061 0.138888,0.010681 0.262818,0.02137 0.384612,0.03739 0.06197,0.0085 0.123931,0.018161 0.183759,0.02885 0.09722,0.014959 0.181623,0.02137 0.26816,0.02991 0.395296,0.214742 0.809822,0.4316199 1.280972,0.6730713 0.519226,0.264955 1.088665,0.5576867 1.700839,0.8910177 0.09829,0.08761 0.191238,0.165596 0.285254,0.242519 -2.131391,-0.7104637 -4.40808,-1.37392 -5.675163,-1.6335331 -0.565166,-0.1153828 -0.854693,-0.08654 -0.96794,0.09722 -0.118589,0.1912372 0.03739,0.4284153 0.164528,0.5897384 0.08226,0.1046998 0.14423,0.2275618 0.22222,0.3835437 0.160255,0.319441 0.379271,0.756403 0.945505,1.329048 0.837599,0.846146 3.586507,1.822633 5.434781,2.409166 0.0085,0.01496 0.01602,0.03098 0.02457,0.04487 0.06838,0.113247 0.114315,0.243587 0.173076,0.408116 0.118588,0.336535 0.282048,0.79807 0.772429,1.435885 1.01388,1.316227 5.692263,3.349329 6.619603,3.743556 0.491449,0.208332 0.98931,0.419868 1.496778,0.580123 0.15491,0.310895 0.363251,0.655977 0.589742,1.011743 -1.342941,0.735037 -2.391,1.521354 -3.139931,2.362159 -0.9423,1.023495 -1.713661,2.440149 -2.317291,4.249961 -0.60362,1.810883 -0.90597,3.616422 -0.90597,5.416621 0,0.491447 0.17414,1.002127 0.52243,1.534172 0.34829,0.532047 0.67521,0.880336 0.98183,1.043796 3.292701,1.900624 6.822591,3.178391 10.58217,3.850392 -0.0374,0.02138 -0.0684,0.03526 -0.10791,0.05876 -1.416649,0.867515 -3.935858,5.303372 -4.426239,6.183706 -0.66132,1.188023 -1.342931,2.416646 -1.150629,3.816205 -0.0758,0.06517 -0.15598,0.126066 -0.23183,0.190169 -0.445511,0.01175 -0.904911,0.02244 -1.37606,0.02992 1.264948,-1.887803 2.393138,-3.779882 2.313009,-4.233938 -0.0182,-0.09829 -0.0726,-0.147433 -0.115379,-0.172005 -0.164531,-0.09188 -0.44337,-0.05662 -0.73824,-0.01924 -0.0812,0.01069 -0.160261,0.02138 -0.23291,0.02778 -0.714731,0.0641 -1.490372,0.418801 -2.128181,0.973282 -0.933751,0.810892 -2.048061,2.205109 -2.964721,3.426253 -3.083307,-0.05342 -4.638849,-0.262819 -4.638849,-0.629269 0,-0.163459 0.07585,-0.291666 0.228631,-0.383542 0.153844,-0.09188 0.358971,-0.183761 0.61431,-0.27564 0.256408,-0.09188 0.587602,-0.220083 0.997855,-0.383542 0.0812,-0.04167 0.16346,-0.08226 0.244656,-0.122865 0.0812,-0.0406 0.152776,-0.09188 0.214741,-0.153844 0.06197,-0.06197 0.09295,-0.122862 0.09295,-0.183758 0,-0.245727 -0.410253,-0.341879 -1.228621,-0.291663 -0.818369,0.05128 -1.667721,0.251065 -2.546986,0.598283 -1.002128,0.449783 -1.87071,1.324775 -2.607883,2.623909 -0.736105,1.299135 -1.10576,2.255322 -1.10576,2.868565 0,1.370715 1.090803,2.394209 3.269202,3.069417 0.143161,0.0438 0.297006,0.08333 0.445509,0.123931 -0.185896,0.116451 -0.354698,0.232902 -0.499996,0.347218 -6.482848,3.006383 -12.0939088,4.472183 -12.2189079,4.507439 l -0.24252,0.06944 0.96153,0.961529 h 0.06197 c 0.2638859,0 4.5448309,-0.919863 10.5020429,-3.485011 0.02457,-0.0011 0.05021,-0.0011 0.07692,-0.0011 0.114315,0 0.248929,0.01283 0.405979,0.02778 0.246793,0.0235 0.555551,0.05342 0.964735,0.05342 0.678413,0 1.630328,-0.0812 3.025614,-0.40491 l 0.32692,-0.07479 c 1.073709,-0.247859 2.774548,-0.642088 4.263849,-1.119647 0.1891,0.0021 0.371789,0.0064 0.565171,0.0064 1.943359,0 3.98394,-0.127137 6.12174,-0.382476 2.138868,-0.256407 4.122828,-0.60897 5.95401,-1.05875 1.83011,-0.450852 3.34933,-0.931616 4.55658,-1.442295 1.412379,-0.634611 2.659158,-1.442295 3.743559,-2.424123 1.084389,-0.981831 1.908099,-2.06088 2.471129,-3.238219 0.561961,-1.175207 0.842941,-2.347204 0.842941,-3.512792 0,-1.698703 -0.715811,-3.232877 -2.14742,-4.603589 C 47.455,39.47871 45.256299,38.159276 42.290519,36.890056 41.879201,36.711639 41.44865,36.539634 41.015959,36.368695 l 0.0919,-0.286324 c 0.494651,-1.535243 1.414511,-4.39419 1.560881,-6.191185 0.0684,-0.842941 -0.1047,-1.677335 -0.47649,-2.291647 -0.0374,-0.06197 -0.0759,-0.132476 -0.115379,-0.202988 -0.14423,-0.26068 -0.280982,-0.506406 -0.45299,-0.584397 -0.0449,-0.02029 -0.11752,-0.03526 -0.207272,0.0096 -0.197638,0.09722 -0.49785,0.617516 -0.839728,1.362166 0,-0.0021 -0.0011,-0.0043 -0.0011,-0.0064 -0.0288,-0.427346 -0.116451,-1.5908 -0.27564,-2.894206 2.96686,-0.557687 6.15807,-0.851488 9.600341,-0.851488 1.247858,0 1.871779,0.132477 1.871779,0.398501 0,0.164528 -0.56303,0.54273 -1.688021,1.135673 -1.063018,0.532047 -1.95938,1.150632 -2.684798,1.855754 -0.72649,0.70619 -1.088672,1.232893 -1.088672,1.581182 0,0.16346 0.101502,0.245724 0.30662,0.245724 0.163462,0 0.583331,-0.225425 1.25747,-0.675208 0.675211,-0.449783 1.48824,-0.920932 2.440152,-1.411312 0.950848,-0.491448 2.070489,-0.96153 3.360009,-1.41238 1.20726,-0.470082 2.050201,-0.84401 2.53203,-1.119649 0.480769,-0.276707 0.93055,-0.833326 1.350419,-1.673062 0.418801,-0.837599 0.6282,-2.024554 0.6282,-3.559797 0,-0.940163 -0.803409,-1.63567 -2.4081,-2.08652 m -8.700721,27.34267 c -1.472209,1.227552 -3.108949,2.189081 -4.910209,2.884588 -1.38781,0.53632 -2.944421,0.942299 -4.661292,1.223281 0.0673,-0.07158 0.13141,-0.142092 0.180562,-0.210468 0.47435,-0.650636 0.62499,-1.115376 0.735038,-1.455117 0.0534,-0.165597 0.0961,-0.297005 0.162391,-0.412387 0.101491,-0.179488 0.219011,-0.435895 0.0737,-0.607903 -0.139948,-0.164526 -0.430548,-0.149569 -0.97221,0.04915 -0.664519,0.245724 -1.616439,0.659183 -2.665569,1.148495 0.17948,-0.209402 0.36431,-0.416663 0.53418,-0.6282 0.0491,-0.03312 0.0929,-0.0609 0.147429,-0.100428 0.0395,-0.02991 0.0812,-0.0609 0.12393,-0.09081 0.093,-0.06517 0.210471,-0.133546 0.347221,-0.212603 0.57051,-0.331194 1.524559,-0.88461 3.043779,-2.605746 0.139962,-0.15812 0.274571,-0.308758 0.403841,-0.454056 0.75534,-0.842941 1.366439,-1.530971 2.06302,-2.742499 1.130331,0.441237 2.17092,0.985035 3.093989,1.66772 1.02136,0.757472 1.788442,1.605757 2.30019,2.546987 M 25.461669,14.751397 c 0.36111,-0.02778 0.72115,-0.08761 1.079051,-0.229699 0.0182,-0.0075 0.0299,-0.01282 0.047,-0.0203 0.630332,0.520295 1.28631,1.090803 1.970061,1.722207 -0.97969,-0.493585 -2.058739,-1.005333 -3.09612,-1.472209"
         id="path10" />
    </clipPath>
  </defs>
  <g
     id="layer1">
    <ellipse
       style="fill:#000000;fill-opacity:1;stroke-width:0.266071"
       id="path1"
       cx="32.940853"
       cy="32.941017"
       rx="32.939659"
       ry="32.939827"
       clip-path="url(#clipPath10)"
       transform="translate(-3.836458,-2.6458334)" />
    <path
       id="path119"
       d="M 0,0 C 0.12,0.17 -1.58,0.55 -2.26,0.88 -2.97,1.23 0.11,0.29 0,0.54 -0.24,1.12 -1.67,1.87 -2.71,2.3 -3.34,2.57 -4.6,3.12 -5.81,3.48 -6.59,3.73 -8.67,4.29 -9.21,4.25 -10.14,4.18 -10.37,3.95 -10.73,3.86 -11.28,3.74 -11.14,3.49 -10.4,3.2 -9.45,2.83 -5.92,1.39 -3.7,0.67 -1.49,-0.05 -0.1,-0.17 0,0 m 3.97,-44.82 c -1.49,-0.42 -2.27,-1.05 -2.77,-1.59 -0.43,-0.47 2.11,0.06 3.01,0.35 0.81,0.27 1.96,0.51 1.52,0.3 -0.44,-0.21 -1.16,-0.41 -2.09,-0.66 -0.92,-0.26 -2.14,-0.42 -2.46,-0.5 -0.38,-0.09 -0.47,-0.16 0.19,-0.24 0.66,-0.09 1.8,-0.01 3.2,0.27 1.35,0.28 5.04,1.11 6.5,2.07 0.66,0.44 0.96,1.1 1.02,1.36 0.15,0.63 -6.63,-0.94 -8.12,-1.36 m 1.72,0.73 c 0.69,0.26 1.58,0.73 2.54,1.94 0.96,1.2 5.05,6.84 4.41,6.95 -0.26,0.05 -0.99,0.03 -1.65,-0.41 -1.46,-0.97 -3.65,-4.05 -4.43,-5.19 -0.82,-1.18 -1.32,-2.19 -1.5,-2.83 -0.18,-0.65 -0.08,-0.59 0.15,-0.28 0.2,0.27 0.82,1.32 1.41,2.08 0.6,0.75 1.06,1.34 1.43,1.67 0.36,0.32 -0.31,-0.64 -0.87,-1.29 -0.61,-0.71 -2.09,-2.85 -1.49,-2.64 m 13.11,7.71 c -0.91,-0.44 -4.37,-2.04 -6.41,-3.18 -2.03,-1.13 -3.06,-2.07 -3.01,-2.26 0.05,-0.2 1.48,0.79 2.19,1.06 0.74,0.28 -2.05,-1.33 -1.79,-1.43 0.59,-0.21 2.11,0.32 3.14,0.79 0.62,0.28 1.88,0.84 2.97,1.47 0.71,0.41 2.53,1.54 2.87,1.97 0.59,0.72 0.57,1.06 0.75,1.38 0.28,0.48 0.01,0.55 -0.71,0.2 m -5.46,-2.37 c 0.17,0.09 0.34,0.18 0.51,0.26 l 0.01,0.01 c 0.46,0.42 1.17,1.26 2,2.5 0.44,0.65 0.94,1.46 1.43,2.29 0.01,0 0.01,0.01 0.01,0.02 0.36,0.6 0.72,1.2 1.03,1.75 0.02,0.01 0.03,0.03 0.03,0.04 0.53,0.91 0.97,1.67 1.18,2.03 0.05,0.09 0.1,0.17 0.13,0.24 0.01,0.01 0.004,0.013 0.014,0.023 l -0.024,0.007 c -0.32,0.08 -0.64,0.15 -0.96,0.22 h -0.01 c -0.19,-0.08 -0.43,-0.19 -0.73,-0.4 -0.45,-0.31 -1.73,-2.04 -2.2,-2.71 -0.71,-1.04 -1.37,-2.25 -1.7,-2.85 -0.55,-0.98 -1.2,-2.45 -1.03,-3.06 0.07,-0.27 1.9,2.39 1.56,1.67 -0.29,-0.61 -1.21,-1.76 -1.25,-2.04 m 6.59,8.29 c -0.54,-0.6 -1.02,-1.15 -1.3,-1.5 -0.97,-1.21 -1.24,-2.18 -1.33,-2.91 -0.08,-0.63 1.68,1.28 2.24,2.03 0.51,0.69 1.3,1.55 1.07,1.13 -0.24,-0.43 -0.71,-1 -1.31,-1.75 -0.61,-0.75 -1.51,-1.58 -1.72,-1.84 -0.26,-0.29 -0.29,-0.4 0.3,-0.08 0.59,0.31 1.47,1.03 2.44,2.08 0.73,0.79 1.62,1.72 2.25,2.87 -0.68,0.25 -1.35,0.46 -2.03,0.64 -0.06,-0.07 -0.5,-0.54 -0.61,-0.67 m 1.51,9.59 c -0.13,-0.34 -0.25,-0.69 -0.37,-1.04 -0.18,-0.53 -0.36,-1.06 -0.52,-1.55 -0.05,-0.16 -0.51,-1.62 -0.62,-2 0,-0.02 -0.01,-0.04 -0.02,-0.06 0.02,-0.01 0.05,-0.02 0.08,-0.03 0.16,-0.05 0.32,-0.1 0.48,-0.15 0.11,-0.04 0.21,-0.07 0.31,-0.1 0.11,-0.04 0.22,-0.08 0.33,-0.11 0.2,0.78 0.49,1.61 0.45,1.18 -0.03,-0.31 -0.13,-0.73 -0.26,-1.24 0.23,-0.08 0.45,-0.16 0.66,-0.24 0.47,1.37 1.61,4.84 1.52,6.55 -0.03,0.79 -0.45,1.39 -0.64,1.58 -0.22,0.21 -0.8,-1.14 -1.4,-2.78 z m -2.55,-2.4 c 0.16,-0.44 0.52,-1.24 0.85,-1.85 0.14,0.49 0.32,1.08 0.53,1.71 -0.07,0.22 -0.15,0.46 -0.25,0.71 -0.32,0.8 -1.36,3.11 -2.28,4.92 -0.11,0.22 -0.22,0.42 -0.32,0.62 l -0.01,0.01 c -0.61,1.12 -1.12,1.91 -1.27,1.72 -0.05,-0.06 -0.11,-0.15 -0.17,-0.27 -0.05,-0.08 -0.09,-0.18 -0.13,-0.29 -0.1,-0.3 -0.18,-0.67 -0.15,-1.09 0.12,-1.74 1.72,-5.17 2.33,-6.41 0.33,-0.69 0.67,-1.28 0.99,-1.75 0.21,-0.07 0.67,-0.21 0.67,-0.21 -0.01,0.01 -0.53,1.02 -0.73,1.51 -0.37,0.89 -0.65,1.58 -0.75,2.06 -0.1,0.47 0.4,-0.58 0.69,-1.39 m 0.52,5.87 c 0.04,-0.31 0.08,-0.6 0.12,-0.88 0.01,-0.09 0.03,-0.18 0.04,-0.27 0.35,-2.31 0.86,-3.6 1.05,-3.62 0.21,-0.02 -0.21,1.67 -0.21,2.42 -0.01,0.59 0.28,-0.99 0.51,-1.77 0.19,0.53 0.38,1.04 0.58,1.52 v 0.01 c 0.02,0.44 0,0.89 -0.02,1.28 -0.05,0.68 -0.12,2.05 -0.33,3.29 -0.13,0.81 -0.55,2.93 -0.83,3.39 -0.47,0.8 -0.79,0.91 -1.02,1.19 -0.36,0.43 -0.52,0.2 -0.45,-0.59 0.08,-0.86 0.29,-3.72 0.56,-5.97 m -7.31,8.99 c -0.03,-0.06 -0.04,-0.15 -0.03,-0.27 v -0.04 c 0.02,-0.21 -0.02,-0.4 -0.01,-0.69 0,-0.02 0,-0.04 0.01,-0.06 0,-0.2 0.03,-0.46 0.12,-0.82 0.02,-0.09 0.07,-0.21 0.14,-0.35 0.06,-0.11 0.13,-0.25 0.21,-0.39 0.42,-0.75 1.11,-1.78 1.45,-2.24 0.58,-0.82 1.29,-1.64 1.78,-2.2 0.09,0.24 0.2,0.52 0.32,0.59 0.22,0.13 0.97,-1.08 1.8,-2.64 0,0 0,-0.01 0.01,-0.01 0.27,-0.18 0.52,-0.3 0.71,-0.32 0.28,-0.02 -1.59,2.6 -1.03,2.04 0.53,-0.54 1.43,-2.03 1.56,-1.87 0.12,0.15 -0.43,1.43 -1.81,3.3 -0.75,1.01 -1.81,2.32 -2.74,3.43 -0.15,0.18 -0.3,0.36 -0.44,0.53 -0.28,0.33 -0.54,0.64 -0.76,0.9 -0.01,0.01 -0.01,0.01 -0.02,0.02 -0.24,0.29 -0.44,0.52 -0.56,0.67 l -0.03,0.03 c -0.36,0.43 -0.6,0.57 -0.68,0.39 m 3.19,-2.74 c 0.07,-0.17 0.14,-0.33 0.22,-0.48 0,0 0.01,-0.01 0.01,-0.02 0.54,-0.66 1.08,-1.34 1.57,-1.99 0.03,-0.03 0.07,-0.06 0.1,-0.08 0.51,-0.38 -0.3,2.09 -0.69,2.95 -0.36,0.77 -0.73,1.88 -0.47,1.48 0.26,-0.42 0.53,-1.11 0.89,-2 0.36,-0.9 0.66,-2.09 0.78,-2.4 0.13,-0.36 0.21,-0.44 0.22,0.22 0.01,0.67 -0.19,1.79 -0.64,3.15 -0.43,1.31 -1.67,4.88 -2.8,6.22 -0.51,0.61 -1.2,0.83 -1.47,0.86 -0.58,0.06 1.25,-5.22 2.05,-7.33 0.09,-0.24 0.17,-0.43 0.23,-0.58 m -4.02,2.91 c -2.07,1.08 -5.56,2.59 -6.49,3.01 -0.73,0.32 -1,0.25 -0.71,-0.23 0.19,-0.32 0.19,-0.65 0.79,-1.36 0.35,-0.41 2.21,-1.5 2.93,-1.89 1.1,-0.6 2.38,-1.12 3.01,-1.39 0.35,-0.15 0.75,-0.3 1.16,-0.43 -0.05,0.11 -0.08,0.21 -0.1,0.31 -0.18,0.88 -0.06,1.33 -0.05,1.69 -0.17,0.09 -0.35,0.19 -0.54,0.29 m -1.96,3.39 c 1.32,-1.92 2.34,-2.86 2.53,-2.79 0.19,0.06 -0.92,1.4 -1.25,2.08 -0.35,0.71 1.51,-1.92 1.58,-1.65 0.16,0.61 -0.51,2.07 -1.07,3.05 -0.34,0.59 -1.01,1.8 -1.73,2.83 C 8.89,-0.67 7.59,1.05 7.14,1.35 6.36,1.86 6.03,1.82 5.7,1.97 5.19,2.2 5.15,1.93 5.56,1.25 6.08,0.37 7.99,-2.92 9.31,-4.85 M 3.55,-4.8 c 0.07,0.13 0.37,0.09 0.77,-0.05 0.41,-0.14 0.96,-0.35 1.58,-0.6 0.96,-0.22 2.03,-0.35 2.46,-0.12 0.24,0.13 -2.76,1.31 -1.99,1.14 0.74,-0.16 2.31,-0.92 2.33,-0.71 0,0.2 -1.16,0.97 -3.32,1.78 -2.19,0.82 -5.84,1.88 -6.82,2.18 -0.76,0.23 -1.02,0.13 -0.67,-0.31 0.23,-0.29 0.27,-0.62 0.95,-1.25 0.4,-0.37 2.38,-1.22 3.14,-1.52 0.52,-0.2 1.07,-0.39 1.57,-0.54 M 2.86,-1.2 C 1.81,-0.07 -2.68,5.24 -2.05,5.4 -1.8,5.47 -1.07,5.5 -0.38,5.11 1.15,4.25 3.57,1.34 4.43,0.27 5.33,-0.84 5.91,-1.82 6.14,-2.44 6.37,-3.07 6.27,-3.02 6.01,-2.73 5.79,-2.48 5.09,-1.47 4.44,-0.76 3.79,-0.06 3.29,0.5 2.9,0.79 2.52,1.08 3.25,0.18 3.86,-0.43 c 0.66,-0.66 2.3,-2.68 1.69,-2.51 -0.72,0.2 -1.63,0.6 -2.69,1.74"
       style="fill:#d39100;fill-opacity:1;fill-rule:nonzero;stroke:none"
       transform="matrix(1.0683666,0,0,-1.0683666,13.339604,5.5780566)"
       clip-path="url(#clipPath6)" />
  </g>
</svg>
